<svg width="592" height="635" viewBox="0 0 592 635" fill="none" xmlns="http://www.w3.org/2000/svg">
<g filter="url(#filter0_d_337_4441)">
<path fill-rule="evenodd" clip-rule="evenodd" d="M81 5.99999V248.11C81.6567 248.037 82.324 248 83 248C92.9411 248 101 256.059 101 266C101 275.941 92.9411 284 83 284C82.324 284 81.6567 283.963 81 283.89V621C81 624.314 83.6863 627 87 627H561C564.314 627 567 624.314 567 621V273.89C566.343 273.963 565.676 274 565 274C555.059 274 547 265.941 547 256C547 246.059 555.059 238 565 238C565.676 238 566.343 238.037 567 238.11V6C567 2.68629 564.314 0 561 0H87C83.6863 0 81 2.68629 81 5.99999Z" fill="white"/>
</g>
<path d="M248.598 45.8672C250.152 45.8672 251.434 46.0547 252.441 46.4297C253.457 46.8047 254.211 47.3711 254.703 48.1289C255.195 48.8867 255.441 49.8438 255.441 51C255.441 51.7812 255.293 52.4648 254.996 53.0508C254.699 53.6367 254.309 54.1328 253.824 54.5391C253.34 54.9453 252.816 55.2773 252.254 55.5352L257.293 63H253.262L249.172 56.4258H247.238V63H243.605V45.8672H248.598ZM248.34 48.8438H247.238V53.4727H248.41C249.613 53.4727 250.473 53.2734 250.988 52.875C251.512 52.4688 251.773 51.875 251.773 51.0938C251.773 50.2812 251.492 49.7031 250.93 49.3594C250.375 49.0156 249.512 48.8438 248.34 48.8438ZM264.82 49.6523C266.031 49.6523 267.074 49.8867 267.949 50.3555C268.824 50.8164 269.5 51.4883 269.977 52.3711C270.453 53.2539 270.691 54.332 270.691 55.6055V57.3398H262.242C262.281 58.3477 262.582 59.1406 263.145 59.7188C263.715 60.2891 264.504 60.5742 265.512 60.5742C266.348 60.5742 267.113 60.4883 267.809 60.3164C268.504 60.1445 269.219 59.8867 269.953 59.543V62.3086C269.305 62.6289 268.625 62.8633 267.914 63.0117C267.211 63.1602 266.355 63.2344 265.348 63.2344C264.035 63.2344 262.871 62.9922 261.855 62.5078C260.848 62.0234 260.055 61.2852 259.477 60.293C258.906 59.3008 258.621 58.0508 258.621 56.543C258.621 55.0117 258.879 53.7383 259.395 52.7227C259.918 51.6992 260.645 50.9336 261.574 50.4258C262.504 49.9102 263.586 49.6523 264.82 49.6523ZM264.844 52.1953C264.148 52.1953 263.57 52.418 263.109 52.8633C262.656 53.3086 262.395 54.0078 262.324 54.9609H267.34C267.332 54.4297 267.234 53.957 267.047 53.543C266.867 53.1289 266.594 52.8008 266.227 52.5586C265.867 52.3164 265.406 52.1953 264.844 52.1953ZM282.988 59.1094C282.988 60 282.777 60.7539 282.355 61.3711C281.941 61.9805 281.32 62.4453 280.492 62.7656C279.664 63.0781 278.633 63.2344 277.398 63.2344C276.484 63.2344 275.699 63.1758 275.043 63.0586C274.395 62.9414 273.738 62.7461 273.074 62.4727V59.5195C273.785 59.8398 274.547 60.1055 275.359 60.3164C276.18 60.5195 276.898 60.6211 277.516 60.6211C278.211 60.6211 278.707 60.5195 279.004 60.3164C279.309 60.1055 279.461 59.832 279.461 59.4961C279.461 59.2773 279.398 59.082 279.273 58.9102C279.156 58.7305 278.898 58.5312 278.5 58.3125C278.102 58.0859 277.477 57.793 276.625 57.4336C275.805 57.0898 275.129 56.7422 274.598 56.3906C274.074 56.0391 273.684 55.625 273.426 55.1484C273.176 54.6641 273.051 54.0508 273.051 53.3086C273.051 52.0977 273.52 51.1875 274.457 50.5781C275.402 49.9609 276.664 49.6523 278.242 49.6523C279.055 49.6523 279.828 49.7344 280.562 49.8984C281.305 50.0625 282.066 50.3242 282.848 50.6836L281.77 53.2617C281.121 52.9805 280.508 52.75 279.93 52.5703C279.359 52.3906 278.777 52.3008 278.184 52.3008C277.66 52.3008 277.266 52.3711 277 52.5117C276.734 52.6523 276.602 52.8672 276.602 53.1562C276.602 53.3672 276.668 53.5547 276.801 53.7188C276.941 53.8828 277.207 54.0664 277.598 54.2695C277.996 54.4648 278.578 54.7188 279.344 55.0312C280.086 55.3359 280.73 55.6562 281.277 55.9922C281.824 56.3203 282.246 56.7305 282.543 57.2227C282.84 57.707 282.988 58.3359 282.988 59.1094ZM291.43 49.6523C292.641 49.6523 293.684 49.8867 294.559 50.3555C295.434 50.8164 296.109 51.4883 296.586 52.3711C297.062 53.2539 297.301 54.332 297.301 55.6055V57.3398H288.852C288.891 58.3477 289.191 59.1406 289.754 59.7188C290.324 60.2891 291.113 60.5742 292.121 60.5742C292.957 60.5742 293.723 60.4883 294.418 60.3164C295.113 60.1445 295.828 59.8867 296.562 59.543V62.3086C295.914 62.6289 295.234 62.8633 294.523 63.0117C293.82 63.1602 292.965 63.2344 291.957 63.2344C290.645 63.2344 289.48 62.9922 288.465 62.5078C287.457 62.0234 286.664 61.2852 286.086 60.293C285.516 59.3008 285.23 58.0508 285.23 56.543C285.23 55.0117 285.488 53.7383 286.004 52.7227C286.527 51.6992 287.254 50.9336 288.184 50.4258C289.113 49.9102 290.195 49.6523 291.43 49.6523ZM291.453 52.1953C290.758 52.1953 290.18 52.418 289.719 52.8633C289.266 53.3086 289.004 54.0078 288.934 54.9609H293.949C293.941 54.4297 293.844 53.957 293.656 53.543C293.477 53.1289 293.203 52.8008 292.836 52.5586C292.477 52.3164 292.016 52.1953 291.453 52.1953ZM307.77 49.6523C307.949 49.6523 308.156 49.6641 308.391 49.6875C308.633 49.7031 308.828 49.7266 308.977 49.7578L308.707 53.1094C308.59 53.0703 308.422 53.043 308.203 53.0273C307.992 53.0039 307.809 52.9922 307.652 52.9922C307.191 52.9922 306.742 53.0508 306.305 53.168C305.875 53.2852 305.488 53.4766 305.145 53.7422C304.801 54 304.527 54.3438 304.324 54.7734C304.129 55.1953 304.031 55.7148 304.031 56.332V63H300.457V49.8984H303.164L303.691 52.1016H303.867C304.125 51.6562 304.445 51.25 304.828 50.8828C305.219 50.5078 305.66 50.2109 306.152 49.9922C306.652 49.7656 307.191 49.6523 307.77 49.6523ZM314.723 63L309.73 49.8984H313.469L316 57.3633C316.141 57.8008 316.25 58.2617 316.328 58.7461C316.414 59.2305 316.473 59.6641 316.504 60.0469H316.598C316.621 59.6328 316.676 59.1914 316.762 58.7227C316.855 58.2539 316.977 57.8008 317.125 57.3633L319.645 49.8984H323.383L318.391 63H314.723ZM330.887 49.6289C332.645 49.6289 333.992 50.0117 334.93 50.7773C335.867 51.543 336.336 52.707 336.336 54.2695V63H333.84L333.148 61.2188H333.055C332.68 61.6875 332.297 62.0703 331.906 62.3672C331.516 62.6641 331.066 62.8828 330.559 63.0234C330.051 63.1641 329.434 63.2344 328.707 63.2344C327.934 63.2344 327.238 63.0859 326.621 62.7891C326.012 62.4922 325.531 62.0391 325.18 61.4297C324.828 60.8125 324.652 60.0312 324.652 59.0859C324.652 57.6953 325.141 56.6719 326.117 56.0156C327.094 55.3516 328.559 54.9844 330.512 54.9141L332.785 54.8438V54.2695C332.785 53.582 332.605 53.0781 332.246 52.7578C331.887 52.4375 331.387 52.2773 330.746 52.2773C330.113 52.2773 329.492 52.3672 328.883 52.5469C328.273 52.7266 327.664 52.9531 327.055 53.2266L325.871 50.8125C326.566 50.4453 327.344 50.1562 328.203 49.9453C329.07 49.7344 329.965 49.6289 330.887 49.6289ZM332.785 56.9297L331.402 56.9766C330.246 57.0078 329.441 57.2148 328.988 57.5977C328.543 57.9805 328.32 58.4844 328.32 59.1094C328.32 59.6562 328.48 60.0469 328.801 60.2812C329.121 60.5078 329.539 60.6211 330.055 60.6211C330.82 60.6211 331.465 60.3945 331.988 59.9414C332.52 59.4883 332.785 58.8438 332.785 58.0078V56.9297ZM345.797 60.3867C346.188 60.3867 346.566 60.3477 346.934 60.2695C347.309 60.1914 347.68 60.0938 348.047 59.9766V62.6367C347.664 62.8086 347.188 62.9492 346.617 63.0586C346.055 63.1758 345.438 63.2344 344.766 63.2344C343.984 63.2344 343.281 63.1094 342.656 62.8594C342.039 62.6016 341.551 62.1602 341.191 61.5352C340.84 60.9023 340.664 60.0234 340.664 58.8984V52.582H338.953V51.0703L340.922 49.875L341.953 47.1094H344.238V49.8984H347.906V52.582H344.238V58.8984C344.238 59.3984 344.379 59.7734 344.66 60.0234C344.949 60.2656 345.328 60.3867 345.797 60.3867ZM354.531 49.8984V63H350.957V49.8984H354.531ZM352.75 44.7656C353.281 44.7656 353.738 44.8906 354.121 45.1406C354.504 45.3828 354.695 45.8398 354.695 46.5117C354.695 47.1758 354.504 47.6367 354.121 47.8945C353.738 48.1445 353.281 48.2695 352.75 48.2695C352.211 48.2695 351.75 48.1445 351.367 47.8945C350.992 47.6367 350.805 47.1758 350.805 46.5117C350.805 45.8398 350.992 45.3828 351.367 45.1406C351.75 44.8906 352.211 44.7656 352.75 44.7656ZM370.449 56.4258C370.449 57.5195 370.301 58.4883 370.004 59.332C369.715 60.1758 369.289 60.8906 368.727 61.4766C368.172 62.0547 367.5 62.4922 366.711 62.7891C365.93 63.0859 365.047 63.2344 364.062 63.2344C363.141 63.2344 362.293 63.0859 361.52 62.7891C360.754 62.4922 360.086 62.0547 359.516 61.4766C358.953 60.8906 358.516 60.1758 358.203 59.332C357.898 58.4883 357.746 57.5195 357.746 56.4258C357.746 54.9727 358.004 53.7422 358.52 52.7344C359.035 51.7266 359.77 50.9609 360.723 50.4375C361.676 49.9141 362.812 49.6523 364.133 49.6523C365.359 49.6523 366.445 49.9141 367.391 50.4375C368.344 50.9609 369.09 51.7266 369.629 52.7344C370.176 53.7422 370.449 54.9727 370.449 56.4258ZM361.391 56.4258C361.391 57.2852 361.484 58.0078 361.672 58.5938C361.859 59.1797 362.152 59.6211 362.551 59.918C362.949 60.2148 363.469 60.3633 364.109 60.3633C364.742 60.3633 365.254 60.2148 365.645 59.918C366.043 59.6211 366.332 59.1797 366.512 58.5938C366.699 58.0078 366.793 57.2852 366.793 56.4258C366.793 55.5586 366.699 54.8398 366.512 54.2695C366.332 53.6914 366.043 53.2578 365.645 52.9688C365.246 52.6797 364.727 52.5352 364.086 52.5352C363.141 52.5352 362.453 52.8594 362.023 53.5078C361.602 54.1562 361.391 55.1289 361.391 56.4258ZM381.094 49.6523C382.492 49.6523 383.617 50.0352 384.469 50.8008C385.32 51.5586 385.746 52.7773 385.746 54.457V63H382.172V55.3477C382.172 54.4102 382 53.7031 381.656 53.2266C381.32 52.75 380.789 52.5117 380.062 52.5117C378.969 52.5117 378.223 52.8828 377.824 53.625C377.426 54.3672 377.227 55.4375 377.227 56.8359V63H373.652V49.8984H376.383L376.863 51.5742H377.062C377.344 51.1211 377.691 50.7539 378.105 50.4727C378.527 50.1914 378.992 49.9844 379.5 49.8516C380.016 49.7188 380.547 49.6523 381.094 49.6523Z" fill="#454D59"/>
<path d="M215.514 302.182C217.399 302.182 218.4 301.168 218.4 299.881C218.4 298.542 217.347 298.048 216.385 297.684C215.605 297.411 214.942 297.203 214.942 296.683C214.942 296.254 215.241 295.968 215.904 295.968C216.437 295.968 216.957 296.228 217.464 296.592L218.335 295.448C217.737 294.98 216.905 294.551 215.852 294.551C214.188 294.551 213.148 295.474 213.148 296.761C213.148 297.996 214.175 298.542 215.098 298.906C215.852 299.192 216.619 299.452 216.619 299.985C216.619 300.44 216.281 300.765 215.553 300.765C214.877 300.765 214.266 300.466 213.603 299.959L212.745 301.168C213.46 301.766 214.539 302.182 215.514 302.182ZM222.024 302.182C222.674 302.182 223.181 302.039 223.571 301.909L223.259 300.518C223.051 300.596 222.778 300.687 222.531 300.687C221.894 300.687 221.543 300.297 221.543 299.465V296.228H223.35V294.733H221.543V292.757H219.957L219.749 294.733L218.618 294.811V296.228H219.632V299.465C219.632 301.09 220.295 302.182 222.024 302.182ZM226.101 302.182C226.933 302.182 227.661 301.779 228.298 301.233H228.35L228.493 302H230.053V297.762C230.053 295.643 229.104 294.551 227.258 294.551C226.101 294.551 225.074 294.98 224.216 295.5L224.905 296.774C225.568 296.371 226.231 296.085 226.907 296.085C227.804 296.085 228.103 296.618 228.142 297.333C225.217 297.658 223.956 298.477 223.956 300.024C223.956 301.272 224.801 302.182 226.101 302.182ZM226.725 300.687C226.166 300.687 225.776 300.44 225.776 299.881C225.776 299.218 226.361 298.737 228.142 298.516V299.985C227.674 300.44 227.271 300.687 226.725 300.687ZM231.871 302H233.782V297.671C234.185 296.618 234.874 296.228 235.433 296.228C235.745 296.228 235.94 296.28 236.2 296.345L236.525 294.707C236.304 294.603 236.07 294.551 235.68 294.551C234.926 294.551 234.133 295.058 233.613 296.02H233.574L233.418 294.733H231.871V302ZM240.068 302.182C240.718 302.182 241.225 302.039 241.615 301.909L241.303 300.518C241.095 300.596 240.822 300.687 240.575 300.687C239.938 300.687 239.587 300.297 239.587 299.465V296.228H241.394V294.733H239.587V292.757H238.001L237.793 294.733L236.662 294.811V296.228H237.676V299.465C237.676 301.09 238.339 302.182 240.068 302.182ZM248.134 302.182C248.888 302.182 249.616 301.779 250.149 301.246H250.188L250.331 302H251.891V291.639H249.98V294.187L250.058 295.331C249.525 294.85 249.018 294.551 248.199 294.551C246.639 294.551 245.144 295.994 245.144 298.373C245.144 300.765 246.314 302.182 248.134 302.182ZM248.615 300.609C247.666 300.609 247.107 299.868 247.107 298.347C247.107 296.891 247.809 296.111 248.628 296.111C249.083 296.111 249.551 296.267 249.98 296.67V299.868C249.564 300.401 249.135 300.609 248.615 300.609ZM255.59 302.182C256.422 302.182 257.15 301.779 257.787 301.233H257.839L257.982 302H259.542V297.762C259.542 295.643 258.593 294.551 256.747 294.551C255.59 294.551 254.563 294.98 253.705 295.5L254.394 296.774C255.057 296.371 255.72 296.085 256.396 296.085C257.293 296.085 257.592 296.618 257.631 297.333C254.706 297.658 253.445 298.477 253.445 300.024C253.445 301.272 254.29 302.182 255.59 302.182ZM256.214 300.687C255.655 300.687 255.265 300.44 255.265 299.881C255.265 299.218 255.85 298.737 257.631 298.516V299.985C257.163 300.44 256.76 300.687 256.214 300.687ZM263.694 302.182C264.344 302.182 264.851 302.039 265.241 301.909L264.929 300.518C264.721 300.596 264.448 300.687 264.201 300.687C263.564 300.687 263.213 300.297 263.213 299.465V296.228H265.02V294.733H263.213V292.757H261.627L261.419 294.733L260.288 294.811V296.228H261.302V299.465C261.302 301.09 261.965 302.182 263.694 302.182ZM269.239 302.182C270.136 302.182 271.046 301.883 271.761 301.389L271.124 300.206C270.591 300.531 270.071 300.713 269.486 300.713C268.407 300.713 267.627 300.102 267.458 298.906H271.956C271.995 298.724 272.034 298.386 272.034 298.022C272.034 296.007 271.007 294.551 268.992 294.551C267.276 294.551 265.612 296.007 265.612 298.373C265.612 300.778 267.198 302.182 269.239 302.182ZM267.432 297.632C267.588 296.566 268.264 296.02 269.031 296.02C269.967 296.02 270.409 296.644 270.409 297.632H267.432Z" fill="black"/>
<path d="M216.339 380.182C217.236 380.182 218.146 379.883 218.861 379.389L218.224 378.206C217.691 378.531 217.171 378.713 216.586 378.713C215.507 378.713 214.727 378.102 214.558 376.906H219.056C219.095 376.724 219.134 376.386 219.134 376.022C219.134 374.007 218.107 372.551 216.092 372.551C214.376 372.551 212.712 374.007 212.712 376.373C212.712 378.778 214.298 380.182 216.339 380.182ZM214.532 375.632C214.688 374.566 215.364 374.02 216.131 374.02C217.067 374.02 217.509 374.644 217.509 375.632H214.532ZM220.59 380H222.501V374.995C223.034 374.475 223.411 374.189 224.009 374.189C224.711 374.189 225.036 374.566 225.036 375.71V380H226.947V375.463C226.947 373.643 226.258 372.551 224.698 372.551C223.71 372.551 222.956 373.071 222.332 373.695H222.293L222.137 372.733H220.59V380ZM231.349 380.182C232.103 380.182 232.831 379.779 233.364 379.246H233.403L233.546 380H235.106V369.639H233.195V372.187L233.273 373.331C232.74 372.85 232.233 372.551 231.414 372.551C229.854 372.551 228.359 373.994 228.359 376.373C228.359 378.765 229.529 380.182 231.349 380.182ZM231.83 378.609C230.881 378.609 230.322 377.868 230.322 376.347C230.322 374.891 231.024 374.111 231.843 374.111C232.298 374.111 232.766 374.267 233.195 374.67V377.868C232.779 378.401 232.35 378.609 231.83 378.609ZM242.401 380.182C243.155 380.182 243.883 379.779 244.416 379.246H244.455L244.598 380H246.158V369.639H244.247V372.187L244.325 373.331C243.792 372.85 243.285 372.551 242.466 372.551C240.906 372.551 239.411 373.994 239.411 376.373C239.411 378.765 240.581 380.182 242.401 380.182ZM242.882 378.609C241.933 378.609 241.374 377.868 241.374 376.347C241.374 374.891 242.076 374.111 242.895 374.111C243.35 374.111 243.818 374.267 244.247 374.67V377.868C243.831 378.401 243.402 378.609 242.882 378.609ZM249.857 380.182C250.689 380.182 251.417 379.779 252.054 379.233H252.106L252.249 380H253.809V375.762C253.809 373.643 252.86 372.551 251.014 372.551C249.857 372.551 248.83 372.98 247.972 373.5L248.661 374.774C249.324 374.371 249.987 374.085 250.663 374.085C251.56 374.085 251.859 374.618 251.898 375.333C248.973 375.658 247.712 376.477 247.712 378.024C247.712 379.272 248.557 380.182 249.857 380.182ZM250.481 378.687C249.922 378.687 249.532 378.44 249.532 377.881C249.532 377.218 250.117 376.737 251.898 376.516V377.985C251.43 378.44 251.027 378.687 250.481 378.687ZM257.961 380.182C258.611 380.182 259.118 380.039 259.508 379.909L259.196 378.518C258.988 378.596 258.715 378.687 258.468 378.687C257.831 378.687 257.48 378.297 257.48 377.465V374.228H259.287V372.733H257.48V370.757H255.894L255.686 372.733L254.555 372.811V374.228H255.569V377.465C255.569 379.09 256.232 380.182 257.961 380.182ZM263.506 380.182C264.403 380.182 265.313 379.883 266.028 379.389L265.391 378.206C264.858 378.531 264.338 378.713 263.753 378.713C262.674 378.713 261.894 378.102 261.725 376.906H266.223C266.262 376.724 266.301 376.386 266.301 376.022C266.301 374.007 265.274 372.551 263.259 372.551C261.543 372.551 259.879 374.007 259.879 376.373C259.879 378.778 261.465 380.182 263.506 380.182ZM261.699 375.632C261.855 374.566 262.531 374.02 263.298 374.02C264.234 374.02 264.676 374.644 264.676 375.632H261.699Z" fill="black"/>
<path d="M136.08 117.504C134.112 117.504 132.688 118.992 132.688 121.136C132.688 123.264 134.112 124.736 136.08 124.736C138.032 124.736 139.472 123.264 139.472 121.136C139.472 118.992 138.032 117.504 136.08 117.504ZM136.08 119.296C136.928 119.296 137.552 119.968 137.552 121.136C137.552 122.288 136.928 122.976 136.08 122.976C135.216 122.976 134.608 122.288 134.608 121.136C134.608 119.968 135.216 119.296 136.08 119.296ZM143.248 116.624V125.456H145.264V116.624H143.248ZM141.472 120.192V121.92H143.824V120.192H141.472ZM140.144 116.88V125.392H142.128V116.88H140.144ZM135.088 126.112V127.808H143.152V131.424H145.264V126.112H135.088ZM147.999 126.352V128.08H149.279C151.919 128.08 154.015 128.016 156.335 127.648L156.143 125.968C153.855 126.304 151.871 126.352 149.279 126.352H147.999ZM147.999 117.84V126.912H150.111V119.568H155.503V117.84H147.999ZM149.631 121.952V123.616H154.879V121.952H149.631ZM157.407 116.608V131.424H159.551V116.608H157.407ZM171.918 116.592V131.456H174.062V116.592H171.918ZM162.494 117.776V128H169.774V117.776H167.662V121.376H164.606V117.776H162.494ZM164.606 123.024H167.662V126.288H164.606V123.024ZM177.116 126.352V128.08H178.396C181.036 128.08 183.132 128.016 185.452 127.648L185.26 125.968C182.972 126.304 180.988 126.352 178.396 126.352H177.116ZM177.116 117.84V126.912H179.228V119.568H184.62V117.84H177.116ZM178.748 121.952V123.616H183.996V121.952H178.748ZM186.524 116.608V131.424H188.668V116.608H186.524ZM198.043 118.752V120.432H201.819V118.752H198.043ZM198.043 121.712V123.408H201.883V121.712H198.043ZM201.147 116.608V125.28H203.275V116.608H201.147ZM191.483 117.68V124.48H198.491V117.68H191.483ZM196.395 119.36V122.816H193.579V119.36H196.395ZM198.251 125.664C195.115 125.664 193.179 126.736 193.179 128.544C193.179 130.368 195.115 131.424 198.251 131.424C201.387 131.424 203.323 130.368 203.323 128.544C203.323 126.736 201.387 125.664 198.251 125.664ZM198.251 127.296C200.187 127.296 201.211 127.696 201.211 128.544C201.211 129.392 200.187 129.808 198.251 129.808C196.331 129.808 195.307 129.392 195.307 128.544C195.307 127.696 196.331 127.296 198.251 127.296Z" fill="#191A20"/>
<path d="M136.208 164.944V166.608C136.208 169.12 135.008 171.856 132.528 172.96L133.728 174.64C136.512 173.376 137.904 170.032 137.904 166.608V164.944H136.208ZM136.688 164.944V166.608C136.688 169.904 138.064 173.056 140.88 174.272L142.032 172.592C139.552 171.568 138.368 169.008 138.368 166.608V164.944H136.688ZM133.12 164.032V165.776H141.424V164.032H133.12ZM142.8 162.608V177.424H144.944V162.608H142.8ZM153.759 164.592V166.304H158.143V164.592H153.759ZM153.759 167.808V169.52H158.143V167.808H153.759ZM149.503 172.048V173.728H157.471V177.424H159.599V172.048H149.503ZM157.471 162.608V171.376H159.599V162.608H157.471ZM151.295 163.376C149.071 163.376 147.375 164.912 147.375 167.04C147.375 169.184 149.071 170.72 151.295 170.72C153.503 170.72 155.199 169.184 155.199 167.04C155.199 164.912 153.503 163.376 151.295 163.376ZM151.295 165.184C152.367 165.184 153.183 165.872 153.183 167.04C153.183 168.224 152.367 168.912 151.295 168.912C150.207 168.912 149.407 168.224 149.407 167.04C149.407 165.872 150.207 165.184 151.295 165.184Z" fill="#191A20"/>
<path d="M142.112 210.592V225.408H144.256V210.592H142.112ZM143.696 216.256V218H146.304V216.256H143.696ZM138.224 212.128V212.496C138.224 216.512 136.384 219.232 132.496 221.248L133.68 222.864C138.608 220.384 140.304 216.576 140.304 212.128H138.224ZM133.312 212.128V213.84H139.312V212.128H133.312ZM152.831 211.536V212.592C152.831 214.864 150.991 216.784 147.359 217.728L148.159 219.392C152.591 218.224 155.055 215.52 155.055 211.536H152.831ZM148.191 211.536V213.232H154.207V211.536H148.191ZM149.503 220.032V221.696H157.471V225.376H159.599V220.032H149.503ZM157.471 210.608V219.408H159.599V210.608H157.471ZM154.351 212.992V214.672H157.823V212.992H154.351ZM154.207 216.144V217.84H157.695V216.144H154.207Z" fill="#191A20"/>
<line x1="123" y1="262.5" x2="523" y2="262.5" stroke="#A3A3A6" stroke-dasharray="2 2"/>
<path fill-rule="evenodd" clip-rule="evenodd" d="M568 531H81V621C81 624.314 83.6863 627 87 627H562C565.314 627 568 624.314 568 621V531Z" fill="#5C7A89"/>
<path d="M294.996 573.808V576.376H298.692V573.808H294.996ZM294.996 580.672V583.264H298.692V580.672H294.996ZM302.22 568.912V591.136H305.268V568.912H302.22ZM297.78 569.248V590.128H300.756V569.248H297.78ZM291.156 570.472C288.228 570.472 286.356 573.52 286.356 578.536C286.356 583.576 288.228 586.624 291.156 586.624C294.108 586.624 296.004 583.576 296.004 578.536C296.004 573.52 294.108 570.472 291.156 570.472ZM291.156 573.472C292.404 573.472 293.124 575.152 293.124 578.536C293.124 581.944 292.404 583.6 291.156 583.6C289.932 583.6 289.212 581.944 289.212 578.536C289.212 575.152 289.932 573.472 291.156 573.472ZM324.514 571.792V574.408H328.354V571.792H324.514ZM324.514 576.616V579.232H328.354V576.616H324.514ZM322.306 568.912V582.016H325.498V568.912H322.306ZM310.666 582.928V585.472H322.306V591.136H325.498V582.928H310.666ZM314.194 570.112C310.762 570.112 308.146 572.392 308.146 575.56C308.146 578.728 310.762 580.984 314.194 580.984C317.626 580.984 320.242 578.728 320.242 575.56C320.242 572.392 317.626 570.112 314.194 570.112ZM314.194 572.824C315.874 572.824 317.122 573.808 317.122 575.56C317.122 577.312 315.874 578.32 314.194 578.32C312.514 578.32 311.266 577.312 311.266 575.56C311.266 573.808 312.514 572.824 314.194 572.824ZM344.096 568.912V591.136H347.264V568.912H344.096ZM346.544 577.576V580.24H350.48V577.576H346.544ZM329.744 572.2V574.744H342.68V572.2H329.744ZM336.248 575.992C333.008 575.992 330.608 578.2 330.608 581.296C330.608 584.392 333.008 586.6 336.248 586.6C339.488 586.6 341.888 584.392 341.888 581.296C341.888 578.2 339.488 575.992 336.248 575.992ZM336.248 578.584C337.76 578.584 338.84 579.592 338.84 581.296C338.84 583 337.76 584.008 336.248 584.008C334.736 584.008 333.656 583 333.656 581.296C333.656 579.592 334.736 578.584 336.248 578.584ZM334.64 569.272V573.16H337.832V569.272H334.64ZM366.99 568.912V591.136H370.206V568.912H366.99ZM360.438 571.216V571.792C360.438 577.744 358.134 581.776 351.75 584.848L353.406 587.392C361.302 583.576 363.606 578.008 363.606 571.216H360.438ZM352.926 571.216V573.736H361.95V571.216H352.926Z" fill="white"/>
<path d="M543.384 26.6155C542.897 26.1282 542.107 26.1282 541.619 26.6155L537.508 30.7268L533.397 26.6155C532.907 26.1424 532.128 26.1492 531.646 26.6307C531.165 27.1123 531.158 27.891 531.631 28.3809L535.742 32.4922L531.631 36.6035C531.307 36.9169 531.176 37.3811 531.291 37.8176C531.405 38.2541 531.746 38.595 532.182 38.7093C532.619 38.8235 533.083 38.6934 533.397 38.3688L537.508 34.2575L541.619 38.3688C542.109 38.842 542.888 38.8352 543.369 38.3536C543.851 37.872 543.858 37.0933 543.384 36.6035L539.273 32.4922L543.384 28.3809C543.872 27.8934 543.872 27.1031 543.384 26.6155Z" fill="#1A051D"/>
<mask id="mask0_337_4441" style="mask-type:alpha" maskUnits="userSpaceOnUse" x="398" y="364" width="187" height="186">
<mask id="mask1_337_4441" style="mask-type:alpha" maskUnits="userSpaceOnUse" x="11" y="364" width="574" height="190">
<path d="M286.544 496.68L311.683 492.058L317.258 510.247L401.277 503.379L402.312 521.391L292.697 533.366L286.544 496.68Z" fill="#5C7A89"/>
<path d="M77.0009 432.625L80.911 449.189L83.8047 474.855L65.4816 479.014L70.1111 495.165L97.8474 486.855L100.734 494.113L101.645 487.704L98.9244 475.346L90.5672 461.913L95.2299 432.612L77.0009 432.625Z" fill="#4E6A75"/>
<path d="M95.2038 430.573L79.0176 432.398L91.9511 547.113L108.137 545.288L95.2038 430.573Z" fill="#5C7A89"/>
<path d="M121.384 423.178L105.198 425.003L119.658 553.258L135.844 551.433L121.384 423.178Z" fill="#5C7A89"/>
<path d="M302.576 399.048C282.658 401.294 268.092 417.26 270.062 434.732C272.032 452.204 289.728 460.601 309.645 458.355C329.563 456.109 344.184 444.248 342.194 426.599C340.204 408.951 322.494 396.802 302.576 399.048ZM294.111 435.161L293.014 425.429L318.226 422.586L319.323 432.318L294.111 435.161Z" fill="#5C7A89"/>
<path d="M358.391 397.479L361.261 430.629L364.166 480.626L364.99 487.938L376.076 485.488L382.509 483.665L380.625 451.782L387.539 449.241L396.739 445.242L395.612 423.922L375.982 430.986L374.131 429.969L374.661 405.909L374.115 395.17L358.391 397.479Z" fill="#4E6A75"/>
<path d="M374.734 390.913L352.042 393.471L363.108 491.622L385.799 489.064L374.734 390.913Z" fill="#5C7A89"/>
<path d="M264.205 477.904L140.942 491.801L143.08 510.761L193.555 505.07L193.811 507.339L198.901 543.201L224.415 540.324L216.296 502.506L266.343 496.864L264.205 477.904Z" fill="#5C7A89"/>
<path d="M69.2325 443.663L11.446 450.178L13.5012 468.407L71.2877 461.891L69.2325 443.663Z" fill="#5C7A89"/>
<path d="M211.557 437.14L245.921 433.266L243.79 414.357L146.874 425.283L149.006 444.193L176.436 441.1L184.392 438.058L182.922 447.671L148.895 469.712L159.355 481.861C159.355 481.861 185.738 471.967 198.482 455.007C208.221 465.756 245.379 472.162 245.379 472.162L256.7 455.72C228.651 454.005 216.73 444.523 211.557 437.14Z" fill="#5C7A89"/>
<path d="M269.445 471.16L273.946 489.572L342.582 479.638L358.609 476.401L356.602 458.602L323.103 465.621L269.445 471.16Z" fill="#5C7A89"/>
<path d="M302.087 461.071L303.77 475.997L324.513 471.105L323.114 458.701L302.087 461.071Z" fill="#5C7A89"/>
<path d="M30.8515 457.208L34.6861 491.219L30.5194 508.387L12.4644 529.419L28.9049 542.757C28.9049 542.757 44.9728 528.333 45.7783 515.322C45.7783 515.322 69.0914 537.078 71.6054 535.824C74.1195 534.57 82.8654 519.745 82.8654 519.745C82.8654 519.745 62.8694 513.37 56.3118 493.479C52.6673 481.894 50.6323 469.864 50.2637 457.725L30.8515 457.208Z" fill="#5C7A89"/>
<path d="M577.291 430.835C576.477 432.567 575.558 434.248 574.54 435.869C574.22 436.185 573.833 436.427 573.409 436.577C572.984 436.726 572.532 436.779 572.084 436.733C570.915 436.558 569.287 436.384 569.278 434.496C569.244 433.132 569.382 431.77 569.689 430.441C570.386 428.013 571.371 425.655 572.09 423.2C572.274 422.566 571.928 421.763 571.717 421.021C571.003 421.484 569.986 421.752 569.623 422.38C568.559 424.42 567.602 426.513 566.756 428.653C566.438 429.458 565.822 430.111 565.036 430.475C564.25 430.839 563.354 430.888 562.534 430.609C560.661 430.31 560.421 428.626 560.586 427.152C560.847 425.719 561.227 424.31 561.72 422.939C562.003 421.938 562.127 420.899 562.088 419.859C559.486 421.363 557.436 423.661 556.239 426.417C553.117 432.692 552.395 440.102 547.601 445.595C545.298 448.24 542.76 450.671 540.02 452.859C538.145 454.347 536.744 452.564 535.574 451.241C535.282 450.971 535.058 450.635 534.92 450.262C534.781 449.89 534.733 449.489 534.778 449.094C534.823 448.699 534.96 448.32 535.178 447.987C535.397 447.655 535.69 447.378 536.035 447.18C537.547 446.122 538.933 444.895 540.167 443.523C542.386 440.132 544.428 436.629 546.287 433.028C548.728 428.413 550.788 423.584 553.367 419.055C554.088 417.675 555.144 416.496 556.438 415.628C557.731 414.76 559.221 414.229 560.773 414.084C565.008 413.606 569.229 412.773 573.231 414.977C575.616 416.28 577.717 418.044 579.412 420.168C581.106 422.292 582.361 424.732 583.102 427.346C586.262 437.483 582.699 446.413 577.857 454.874C573.685 462.417 568.507 469.358 562.463 475.504C561.294 476.819 560.334 478.305 559.615 479.91C558.311 482.611 556.317 483.499 554.259 482.455C551.542 480.999 551.306 478.907 553.764 476.025C558.591 470.374 563.74 464.866 568.116 458.832C572.491 452.798 576.332 447.233 577.488 440.056C577.833 436.969 577.994 433.864 577.972 430.758L577.291 430.835Z" fill="#5C7A89"/>
<path d="M455.757 434.478C445.322 435.22 436.746 435.932 428.196 436.41C424.898 436.603 421.572 436.315 418.237 436.18C417.756 436.228 417.269 436.179 416.806 436.037C416.343 435.895 415.913 435.663 415.541 435.353C415.169 435.043 414.862 434.663 414.638 434.234C414.414 433.804 414.277 433.335 414.237 432.852C414.174 432.38 414.212 431.899 414.348 431.442C414.485 430.986 414.716 430.563 415.028 430.202C415.339 429.841 415.724 429.551 416.156 429.349C416.588 429.148 417.057 429.04 417.534 429.033C422.005 428.836 426.471 428.358 430.926 428.468C444.182 428.736 457.148 426.201 470.211 424.754C475.832 423.853 481.398 422.629 486.879 421.088C490.789 420.213 494.704 419.388 498.561 418.264C502.417 417.14 506.43 415.59 510.378 414.378C512.885 413.41 515.48 412.69 518.128 412.228C519.212 412.106 520.802 413.305 521.538 414.397C521.723 414.719 521.84 415.075 521.883 415.443C521.926 415.812 521.894 416.185 521.789 416.541C521.683 416.896 521.507 417.227 521.269 417.512C521.032 417.798 520.74 418.032 520.41 418.201C519.344 418.821 518.207 419.309 517.024 419.655L502.583 424.5C500.556 425.264 498.492 425.923 496.397 426.474C487.949 428.32 479.499 430.141 471.04 431.886C465.32 432.787 459.612 433.788 455.757 434.478Z" fill="#5C7A89"/>
<path d="M472.296 492.844C463.56 493.896 454.729 493.889 445.995 492.822C439.422 492.386 433.121 490.034 427.87 486.057C427.143 485.501 426.284 484.219 426.502 483.658C426.675 483.101 426.968 482.588 427.361 482.156C427.753 481.723 428.235 481.382 428.773 481.155C430.19 480.863 431.664 481.067 432.948 481.731C438.921 485.062 445.693 486.692 452.527 486.443C460.173 486.322 467.674 486.267 475.204 485.572C479.862 484.908 484.458 483.869 488.948 482.465C493.593 481.332 498.176 479.963 502.682 478.363C508.45 476.336 513.639 472.938 517.804 468.462C518.313 467.876 518.856 467.32 519.429 466.798C522.099 464.659 523.251 464.682 525.264 467.366C525.493 467.815 525.607 468.314 525.597 468.819C525.587 469.323 525.453 469.817 525.207 470.257C522.263 474.428 518.448 477.907 514.024 480.455C509.329 483.424 504.19 485.624 498.801 486.971C492.65 488.354 486.68 490.431 480.544 491.94C477.816 492.416 475.062 492.718 472.296 492.844V492.844Z" fill="#5C7A89"/>
<path d="M490.876 385.427L500.809 384.307C502.624 384.103 504.046 384.479 504.439 386.605C504.573 387.012 504.619 387.443 504.574 387.869C504.528 388.295 504.393 388.707 504.176 389.077C503.959 389.447 503.666 389.766 503.316 390.014C502.967 390.262 502.568 390.432 502.147 390.514C500.83 390.971 499.477 391.32 498.103 391.557C493.565 392.069 489.001 392.584 484.483 393.272C468.959 395.686 453.441 398.15 437.928 400.665C431.76 401.667 425.609 402.82 419.438 403.797C418.988 403.901 418.522 403.91 418.068 403.821C417.615 403.733 417.186 403.55 416.809 403.283C416.432 403.017 416.115 402.674 415.88 402.277C415.644 401.88 415.496 401.438 415.443 400.979C415.344 400.059 415.594 399.136 416.144 398.393C416.694 397.649 417.504 397.14 418.413 396.967C424.449 395.929 430.469 394.97 436.485 393.985C451.152 391.591 465.816 389.172 480.491 386.853C483.954 386.31 487.425 386.072 490.904 385.679L490.876 385.427Z" fill="#5C7A89"/>
<path d="M499.264 459.599C499.566 462.762 498.892 465.942 497.333 468.71C495.773 471.479 493.403 473.703 490.541 475.085C487.122 477.17 483.406 478.725 479.521 479.697C476.039 480.494 472.426 480.522 468.933 479.778C465.441 479.034 462.152 477.536 459.298 475.39C457.833 474.366 456.585 473.061 455.626 471.552C454.667 470.044 454.016 468.36 453.711 466.598C453.495 464.682 454.469 462.223 456.004 461.795C456.498 461.708 457.004 461.721 457.493 461.832C457.983 461.943 458.445 462.15 458.853 462.441C459.261 462.733 459.608 463.103 459.872 463.529C460.136 463.956 460.312 464.431 460.391 464.926C461.319 469.085 464.486 470.899 468.071 472.128C469.586 472.652 471.19 472.87 472.79 472.771C478.038 472.435 483.347 472.193 487.794 468.832C490.449 466.797 492.659 464.658 492.488 460.873C492.317 457.088 492.973 455.891 495.668 455.561C498.363 455.232 498.789 455.618 499.116 458.288L499.264 459.599Z" fill="#5C7A89"/>
<path d="M458.642 451.233C458.659 449.017 458.793 446.803 459.044 444.601C459.04 444.147 459.14 443.698 459.334 443.288C459.528 442.878 459.813 442.517 460.166 442.232C460.519 441.947 460.931 441.745 461.373 441.641C461.815 441.537 462.275 441.535 462.718 441.633C463.656 441.839 464.493 442.368 465.083 443.127C465.672 443.886 465.977 444.828 465.944 445.789C466.026 449.008 466.387 452.213 467.024 455.369C467.774 458.4 469.67 459.361 472.768 459.216C478.657 458.909 480.872 457.944 479.683 450.342C479.124 447.548 478.354 444.802 477.378 442.125C477.092 441.291 477.101 440.384 477.402 439.556C477.704 438.728 478.28 438.027 479.035 437.572C479.42 437.358 479.849 437.23 480.289 437.199C480.729 437.168 481.171 437.233 481.583 437.391C481.995 437.55 482.368 437.796 482.675 438.114C482.981 438.431 483.214 438.812 483.358 439.23C486.415 444.635 487.538 450.921 486.542 457.05C486.241 458.909 485.429 460.649 484.196 462.073C482.963 463.497 481.358 464.55 479.561 465.114C477.29 466.029 474.846 466.436 472.401 466.306C469.956 466.176 467.569 465.512 465.408 464.36C463.819 463.314 462.456 461.96 461.4 460.377C460.345 458.794 459.618 457.016 459.262 455.147C459.014 453.849 458.866 452.534 458.819 451.213L458.642 451.233Z" fill="#5C7A89"/>
<path d="M444.059 447.797C446.757 447.492 448.226 448.527 448.592 451.09C448.693 452.326 448.319 453.554 447.546 454.523C446.773 455.493 445.659 456.131 444.431 456.308C443.912 456.37 443.386 456.328 442.883 456.184C442.38 456.04 441.911 455.797 441.504 455.47C441.096 455.143 440.757 454.737 440.508 454.278C440.259 453.818 440.104 453.313 440.052 452.793C439.947 452.196 439.97 451.584 440.121 450.996C440.271 450.409 440.545 449.861 440.925 449.388C441.304 448.915 441.78 448.529 442.32 448.254C442.861 447.98 443.453 447.824 444.059 447.797V447.797Z" fill="#5C7A89"/>
<path d="M503.046 441.964C503.21 443.076 502.945 444.21 502.306 445.135C501.666 446.06 500.699 446.708 499.6 446.948C499.064 447.048 498.514 447.03 497.986 446.895C497.459 446.761 496.967 446.514 496.544 446.17C496.122 445.827 495.779 445.396 495.54 444.907C495.3 444.417 495.17 443.882 495.159 443.338C495.047 442.768 495.057 442.181 495.19 441.616C495.323 441.05 495.575 440.52 495.929 440.059C496.283 439.599 496.731 439.219 497.243 438.946C497.755 438.673 498.32 438.511 498.9 438.473C501.323 438.226 502.591 439.283 503.046 441.964Z" fill="#5C7A89"/>
<path d="M417.148 417.23C417.301 418.591 416.09 419.621 414.533 420.078C413.31 420.105 412.111 419.739 411.112 419.033C410.113 418.328 409.367 417.32 408.984 416.159C408.885 415.767 408.872 415.358 408.944 414.961C409.017 414.563 409.175 414.186 409.406 413.854C409.638 413.523 409.938 413.246 410.286 413.041C410.634 412.836 411.023 412.708 411.425 412.666C412.77 412.605 414.091 413.033 415.144 413.872C416.197 414.712 416.909 415.905 417.148 417.23V417.23Z" fill="#5C7A89"/>
<path d="M487.873 379.178C487.933 379.513 487.921 379.856 487.838 380.185C487.755 380.515 487.602 380.823 487.391 381.088C487.179 381.354 486.913 381.571 486.61 381.726C486.308 381.88 485.975 381.968 485.636 381.984C484.556 382.035 483.496 381.675 482.669 380.978C481.842 380.28 481.31 379.296 481.178 378.222C480.959 376.281 481.893 375.282 484.188 375.023C486.005 374.614 487.58 376.122 487.873 379.178Z" fill="#5C7A89"/>
<path d="M471.917 376.024C472.108 377.713 470.91 378.869 468.865 379.074C468.43 379.187 467.975 379.203 467.533 379.121C467.09 379.04 466.671 378.863 466.304 378.603C465.936 378.343 465.63 378.006 465.407 377.616C465.183 377.226 465.047 376.791 465.008 376.343C464.94 375.924 464.959 375.495 465.062 375.082C465.166 374.67 465.352 374.283 465.611 373.946C465.869 373.608 466.194 373.327 466.565 373.119C466.936 372.912 467.345 372.782 467.768 372.738C468.741 372.688 469.698 372.994 470.462 373.599C471.226 374.204 471.743 375.066 471.917 376.024V376.024Z" fill="#5C7A89"/>
<path d="M483.548 370.934C482.556 371.012 481.574 370.697 480.814 370.056C480.053 369.415 479.576 368.501 479.485 367.511C479.261 365.519 480.562 364.836 482.209 364.497C483.171 364.451 484.118 364.748 484.882 365.335C485.645 365.923 486.174 366.762 486.375 367.704C486.418 368.105 486.378 368.511 486.257 368.896C486.135 369.28 485.935 369.635 485.67 369.939C485.404 370.242 485.078 370.487 484.713 370.659C484.348 370.83 483.951 370.924 483.548 370.934V370.934Z" fill="#5C7A89"/>
<path d="M425.222 419.996C427.416 419.749 428.745 420.671 429.02 422.657C429.123 423.089 429.133 423.538 429.049 423.974C428.965 424.41 428.789 424.823 428.533 425.185C428.276 425.548 427.945 425.851 427.562 426.075C427.179 426.3 426.753 426.44 426.311 426.486C425.391 426.437 424.517 426.07 423.837 425.449C423.157 424.827 422.714 423.989 422.582 423.077C422.497 422.693 422.503 422.294 422.598 421.912C422.694 421.53 422.877 421.176 423.133 420.877C423.389 420.578 423.711 420.343 424.074 420.19C424.436 420.037 424.829 419.971 425.222 419.996Z" fill="#5C7A89"/>
<path d="M431.056 416.938C430.159 416.822 429.312 416.455 428.615 415.878C427.917 415.302 427.397 414.54 427.115 413.68C426.898 411.764 427.998 410.874 429.757 410.625C430.595 410.452 431.466 410.62 432.18 411.09C432.893 411.56 433.391 412.295 433.564 413.132C433.736 413.969 433.568 414.84 433.098 415.554C432.628 416.268 431.894 416.766 431.056 416.938V416.938Z" fill="#5C7A89"/>
<mask id="mask2_337_4441" style="mask-type:alpha" maskUnits="userSpaceOnUse" x="270" y="505" width="7" height="8">
<path d="M276.783 507.942C276.928 508.905 276.7 509.886 276.144 510.685C275.588 511.483 274.748 512.039 273.795 512.237C273.004 512.165 272.26 511.829 271.684 511.282C271.108 510.736 270.734 510.01 270.621 509.224C270.607 508.786 270.68 508.349 270.835 507.939C270.991 507.53 271.226 507.154 271.527 506.836C271.828 506.517 272.189 506.261 272.59 506.082C272.99 505.904 273.422 505.806 273.86 505.795C274.193 505.741 274.534 505.753 274.863 505.832C275.191 505.911 275.501 506.054 275.773 506.254C276.045 506.454 276.275 506.706 276.448 506.996C276.622 507.286 276.736 507.608 276.783 507.942Z" fill="#5C7A89"/>
</mask>
<g mask="url(#mask2_337_4441)">
</g>
</mask>
<g mask="url(#mask1_337_4441)">
<circle cx="511.37" cy="436.531" r="112.905" transform="rotate(-6.43257 511.37 436.531)" fill="#5C7A89" fill-opacity="0.3"/>
</g>
</mask>
<g mask="url(#mask0_337_4441)">
<g filter="url(#filter1_d_337_4441)">
<path fill-rule="evenodd" clip-rule="evenodd" d="M81 17V259.11C81.6567 259.037 82.324 259 83 259C92.9411 259 101 267.059 101 277C101 286.941 92.9411 295 83 295C82.324 295 81.6567 294.963 81 294.89V632C81 635.314 83.6863 638 87 638H561C564.314 638 567 635.314 567 632V284.89C566.343 284.963 565.676 285 565 285C555.059 285 547 276.941 547 267C547 257.059 555.059 249 565 249C565.676 249 566.343 249.037 567 249.11V17C567 13.6863 564.314 11 561 11H87C83.6863 11 81 13.6863 81 17Z" fill="#5C7A89"/>
</g>
</g>
<defs>
<filter id="filter0_d_337_4441" x="77" y="0" width="494" height="635" filterUnits="userSpaceOnUse" color-interpolation-filters="sRGB">
<feFlood flood-opacity="0" result="BackgroundImageFix"/>
<feColorMatrix in="SourceAlpha" type="matrix" values="0 0 0 0 0 0 0 0 0 0 0 0 0 0 0 0 0 0 127 0" result="hardAlpha"/>
<feOffset dy="4"/>
<feGaussianBlur stdDeviation="2"/>
<feComposite in2="hardAlpha" operator="out"/>
<feColorMatrix type="matrix" values="0 0 0 0 0 0 0 0 0 0 0 0 0 0 0 0 0 0 0.25 0"/>
<feBlend mode="normal" in2="BackgroundImageFix" result="effect1_dropShadow_337_4441"/>
<feBlend mode="normal" in="SourceGraphic" in2="effect1_dropShadow_337_4441" result="shape"/>
</filter>
<filter id="filter1_d_337_4441" x="77" y="11" width="494" height="635" filterUnits="userSpaceOnUse" color-interpolation-filters="sRGB">
<feFlood flood-opacity="0" result="BackgroundImageFix"/>
<feColorMatrix in="SourceAlpha" type="matrix" values="0 0 0 0 0 0 0 0 0 0 0 0 0 0 0 0 0 0 127 0" result="hardAlpha"/>
<feOffset dy="4"/>
<feGaussianBlur stdDeviation="2"/>
<feComposite in2="hardAlpha" operator="out"/>
<feColorMatrix type="matrix" values="0 0 0 0 0 0 0 0 0 0 0 0 0 0 0 0 0 0 0.25 0"/>
<feBlend mode="normal" in2="BackgroundImageFix" result="effect1_dropShadow_337_4441"/>
<feBlend mode="normal" in="SourceGraphic" in2="effect1_dropShadow_337_4441" result="shape"/>
</filter>
</defs>
</svg>
